<?xml version="1.0" standalone="no"?>
<!DOCTYPE svg PUBLIC "-//W3C//DTD SVG 20010904//EN"
 "http://www.w3.org/TR/2001/REC-SVG-20010904/DTD/svg10.dtd">
<svg version="1.0" xmlns="http://www.w3.org/2000/svg"
 width="287.000000pt" height="356.000000pt" viewBox="0 0 287.000000 356.000000"
 preserveAspectRatio="xMidYMid meet">

<g transform="translate(0.000000,356.000000) scale(0.100000,-0.100000)"
fill="#000000" stroke="none">
<path d="M1000 1875 l0 -1676 -22 6 c-13 4 -65 27 -116 52 -244 119 -463 335
-587 579 -52 101 -107 263 -126 374 -20 108 -17 364 4 472 63 316 227 579 474
758 35 25 63 48 63 52 0 15 -42 118 -48 118 -19 0 -148 -109 -232 -196 -190
-197 -314 -429 -372 -697 -32 -152 -32 -430 0 -576 99 -442 372 -796 767 -994
182 -91 357 -135 571 -144 411 -18 791 131 1078 422 291 294 442 712 406 1118
-10 108 -34 244 -45 255 -3 4 -26 -14 -50 -38 l-45 -45 10 -60 c15 -92 12
-350 -5 -449 -56 -323 -241 -624 -503 -821 -48 -36 -90 -65 -94 -65 -5 0 -9
498 -10 1107 l-3 1106 -220 134 -220 133 -3 -1329 -2 -1329 -31 -6 c-17 -3
-35 -6 -40 -6 -5 0 -9 664 -9 1533 l0 1532 -272 165 c-149 91 -282 171 -295
178 l-23 13 0 -1676z m250 915 l0 -50 -70 0 -70 0 0 50 0 50 70 0 70 0 0 -50z
m230 0 l0 -50 -70 0 -70 0 0 50 0 50 70 0 70 0 0 -50z m0 -400 l0 -50 -70 0
-70 0 0 50 0 50 70 0 70 0 0 -50z m380 -170 l0 -40 -55 0 -55 0 0 33 c0 44 4
47 62 47 l48 0 0 -40z m180 0 l0 -40 -55 0 -55 0 0 40 0 40 55 0 55 0 0 -40z
m-790 -30 l0 -50 -70 0 -70 0 0 50 0 50 70 0 70 0 0 -50z m230 -195 l0 -55
-70 0 -70 0 0 55 0 55 70 0 70 0 0 -55z m560 -85 l0 -40 -55 0 -55 0 0 40 0
40 55 0 55 0 0 -40z m-180 -150 l0 -40 -55 0 -55 0 0 33 c0 44 4 47 62 47 l48
0 0 -40z m-610 -160 l0 -50 -70 0 -70 0 0 50 0 50 70 0 70 0 0 -50z m790 0 l0
-40 -55 0 -55 0 0 40 0 40 55 0 55 0 0 -40z m-560 -200 l0 -50 -70 0 -70 0 0
50 0 50 70 0 70 0 0 -50z m380 -100 l0 -40 -55 0 -55 0 0 33 c0 44 4 47 62 47
l48 0 0 -40z m-610 -100 l0 -50 -70 0 -70 0 0 50 0 50 70 0 70 0 0 -50z m790
-60 l0 -40 -55 0 -55 0 0 40 0 40 55 0 55 0 0 -40z m-560 -140 l0 -50 -70 0
-70 0 0 50 0 50 70 0 70 0 0 -50z m380 -10 l0 -40 -55 0 -55 0 0 40 0 40 55 0
55 0 0 -40z m180 -150 l0 -40 -55 0 -55 0 0 40 0 40 55 0 55 0 0 -40z m-560
-40 l0 -50 -70 0 -70 0 0 50 0 50 70 0 70 0 0 -50z m560 -120 l0 -40 -55 0
-55 0 0 40 0 40 55 0 55 0 0 -40z m-790 -80 l0 -50 -70 0 -70 0 0 50 0 50 70
0 70 0 0 -50z m610 -70 l0 -40 -55 0 -55 0 0 40 0 40 55 0 55 0 0 -40z"/>
</g>
</svg>
