<svg id="Camada_1" data-name="Camada 1" xmlns="http://www.w3.org/2000/svg" viewBox="0 0 285.12 354.95"><defs><style>.cls-1{fill:#ffc107;}</style></defs><path class="cls-1" d="M286,201.7c3.6,40.6-11.5,82.4-40.6,111.8-28.7,29.1-66.7,44-107.8,42.2-21.4-.9-38.9-5.3-57.1-14.4C41,321.5,13.7,286.1,3.8,241.9c-3.2-14.6-3.2-42.4,0-57.6A141.63,141.63,0,0,1,41,114.6C49.4,105.9,62.3,95,64.2,95c.6,0,4.8,10.3,4.8,11.8,0,.4-2.8,2.7-6.3,5.2C38,129.9,21.6,156.2,15.3,187.8c-2.1,10.8-2.4,36.4-.4,47.2,1.9,11.1,7.4,27.3,12.6,37.4,12.4,24.4,34.3,46,58.7,57.9,5.1,2.5,10.3,4.8,11.6,5.2l2.2.6V.9l2.3,1.3c1.3.7,14.6,8.7,29.5,17.8L159,36.5V189.7c0,86.9.4,153.3.9,153.3s2.3-.3,4-.6l3.1-.6.2-132.9L167.5,76l22,13.3,22,13.4.3,110.6c.1,60.9.5,110.7,1,110.7s4.6-2.9,9.4-6.5a132.5,132.5,0,0,0,50.3-82.1c1.7-9.9,2-35.7.5-44.9l-1-6,4.5-4.5c2.4-2.4,4.7-4.2,5-3.8C282.6,177.3,285,190.9,286,201.7ZM204,292v-8H193v8h11Zm0-16v-8H193v8h11Zm0-30v-8H193v8h11Zm0-46v-8H193v8h11Zm0-31v-8H193v8h11Zm0-31v-8H193v8h11ZM186,307v-8H175v8h11Zm0-46v-8H175v8h11Zm0-31v-8h-4.8c-5.8,0-6.2.3-6.2,4.7V230h11Zm0-46v-8h-4.8c-5.8,0-6.2.3-6.2,4.7V184h11Zm0-46v-8h-4.8c-5.8,0-6.2.3-6.2,4.7V138h11ZM148,281V271H134v10h14Zm0-20V251H134v10h14Zm0-40V211H134v10h14Zm0-59V151H134v11h14Zm0-40V112H134v10h14Zm0-40V72H134V82h14ZM125,301V291H111v10h14Zm0-60V231H111v10h14Zm0-40V191H111v10h14Zm0-59V132H111v10h14Zm0-60V72H111V82h14Z" transform="translate(-1.4 -0.9)"/></svg>