<?xml version="1.0" encoding="utf-8"?>
<!-- Generator: Adobe Illustrator 24.2.0, SVG Export Plug-In . SVG Version: 6.00 Build 0)  -->
<svg version="1.1" id="Camada_1" xmlns="http://www.w3.org/2000/svg" xmlns:xlink="http://www.w3.org/1999/xlink" x="0px" y="0px"
	 viewBox="0 0 44 44" style="enable-background:new 0 0 44 44;" xml:space="preserve">
<style type="text/css">
	.st0{fill:none;}
</style>
<path class="st0" d="M-2-2h48v48H-2V-2z"/>
<path d="M9.2,19.1c3.4,6.8,9,12.3,15.7,15.7l5.3-5.3c0.7-0.7,1.6-0.8,2.4-0.6c2.7,0.9,5.6,1.4,8.5,1.4c1.3,0,2.4,1.1,2.4,2.4v8.4
	c0,1.3-1.1,2.4-2.4,2.4C18.7,43.5,0.5,25.3,0.5,2.9c0-1.3,1.1-2.4,2.4-2.4h8.4c1.3,0,2.4,1.1,2.4,2.4c0,3,0.5,5.9,1.4,8.5
	c0.3,0.8,0.1,1.8-0.6,2.4L9.2,19.1z"/>
</svg>
