<svg id="Layer_1" data-name="Layer 1" xmlns="http://www.w3.org/2000/svg" viewBox="0 0 43 43"><path d="M43.5,21.45A21.15,21.15,0,0,1,12.19,39.79L.5,43.5,4.31,32.26a20.73,20.73,0,0,1-3-10.81,21.11,21.11,0,0,1,42.22,0M22.39,3.84A17.7,17.7,0,0,0,4.64,21.45,17.44,17.44,0,0,0,8,31.77L5.81,38.31l6.82-2.17a17.65,17.65,0,1,0,9.76-32.3M33.05,26.27c-.13-.21-.47-.34-1-.6S29,24.17,28.52,24s-.82-.26-1.16.26-1.34,1.67-1.64,2-.6.39-1.12.13a14.11,14.11,0,0,1-4.16-2.55,15.47,15.47,0,0,1-2.88-3.55c-.3-.52,0-.79.23-1.05s.51-.6.77-.9a3.29,3.29,0,0,0,.52-.86,1,1,0,0,0,0-.9c-.13-.25-1.17-2.78-1.6-3.81s-.86-.85-1.16-.85-.65,0-1,0a1.91,1.91,0,0,0-1.38.65,5.73,5.73,0,0,0-1.81,4.28,9.94,9.94,0,0,0,2.12,5.31c.26.34,3.58,5.69,8.84,7.75s5.26,1.37,6.21,1.28,3.06-1.24,3.49-2.44a4.25,4.25,0,0,0,.3-2.44" transform="translate(-0.5 -0.5)"/></svg>