<?xml version="1.0" encoding="utf-8"?>
<!-- Generator: Adobe Illustrator 24.2.0, SVG Export Plug-In . SVG Version: 6.00 Build 0)  -->
<svg version="1.1" id="Layer_1" xmlns="http://www.w3.org/2000/svg" xmlns:xlink="http://www.w3.org/1999/xlink" x="0px" y="0px"
	 viewBox="0 0 56.7 56.7" style="enable-background:new 0 0 56.7 56.7;" xml:space="preserve">
<g>
	<circle cx="27.9" cy="28.6" r="5"/>
	<path d="M34.1,16.4H21.7c-1.8,0-3.4,0.6-4.4,1.6c-1,1-1.6,2.6-1.6,4.4v12.4c0,1.8,0.6,3.4,1.7,4.5c1.1,1,2.6,1.6,4.4,1.6h12.3
		c1.8,0,3.4-0.6,4.4-1.6c1.1-1,1.7-2.6,1.7-4.4V22.5c0-1.8-0.6-3.3-1.6-4.4C37.5,17,36,16.4,34.1,16.4z M27.9,36.3
		c-4.3,0-7.7-3.5-7.7-7.7c0-4.3,3.5-7.7,7.7-7.7s7.8,3.4,7.8,7.7S32.2,36.3,27.9,36.3z M35.9,22.4c-1,0-1.8-0.8-1.8-1.8
		c0-1,0.8-1.8,1.8-1.8c1,0,1.8,0.8,1.8,1.8C37.7,21.6,36.9,22.4,35.9,22.4z"/>
	<path d="M28.3,1.4c-15,0-27.1,12.1-27.1,27.1s12.1,27.1,27.1,27.1s27.1-12.1,27.1-27.1C55.5,13.5,43.3,1.4,28.3,1.4z M42.7,34.9
		c0,2.5-0.9,4.7-2.4,6.3c-1.5,1.5-3.7,2.3-6.2,2.3h-12c-2.4,0-4.6-0.8-6.2-2.3c-1.7-1.5-2.4-3.7-2.4-6.3V22.8c0-5.1,3.4-8.6,8.6-8.6
		h12.1c2.5,0,4.6,0.9,6.2,2.4c1.5,1.5,2.3,3.6,2.3,6.2C42.7,22.8,42.7,34.9,42.7,34.9z"/>
</g>
</svg>
