<svg id="Слой_1" data-name="Слой 1" xmlns="http://www.w3.org/2000/svg" viewBox="0 0 94 124"><defs><style>.cls-1{fill:#201600;}</style></defs><path class="cls-1" d="M17,2V126h94V23.2L89.8,2ZM91,8.8,104.2,22H91ZM21,122V6H87V26h20v96Z" transform="translate(-17 -2)"/><rect class="cls-1" x="12" y="75" width="70" height="4"/><rect class="cls-1" x="12" y="85" width="70" height="4"/><rect class="cls-1" x="57" y="95" width="25" height="4"/><path class="cls-1" d="M64,63.6a78,78,0,0,0,25.7-4.4l1.3-.5V51.4l-3.1-.9V47.6A23.71,23.71,0,0,0,75,26.4v-.2A4.23,4.23,0,0,0,70.8,22H66v-.6H62V22H57.2A4.23,4.23,0,0,0,53,26.2v.2A23.94,23.94,0,0,0,40.1,47.6v2.9l-3.1,1v7.3l1.3.5A80.57,80.57,0,0,0,64,63.6ZM41,54.5l3.1-.9V47.7A19.92,19.92,0,0,1,53,31.1v6.1h4v-11a.22.22,0,0,1,.2-.2H62V43.3h4V26h4.8a.22.22,0,0,1,.2.2v11h4V31.1a20.05,20.05,0,0,1,8.9,16.6v5.9l3.1.9v1.4a73.81,73.81,0,0,1-46,0Z" transform="translate(-17 -2)"/><rect class="cls-1" x="31.6" y="48.1" width="30.7" height="4"/></svg>