<svg id="Слой_1" data-name="Слой 1" xmlns="http://www.w3.org/2000/svg" viewBox="0 0 89.8 123.9"><path d="M82,58.9a18.47,18.47,0,0,1-6.2-13.6V37A11.94,11.94,0,0,0,66,25.2V2H62V25.2A12,12,0,0,0,51.8,37v8.6A17.62,17.62,0,0,1,46,58.8,26.59,26.59,0,0,0,37.1,81a27.14,27.14,0,0,0,25.2,24.9c.6,0,1.2.1,1.8.1h0a26.85,26.85,0,0,0,19.1-7.9A27.11,27.11,0,0,0,82,58.9ZM55.8,37a8,8,0,0,1,16,0v8h-16ZM80.3,95.3A23.26,23.26,0,0,1,64,102H62.5A23,23,0,0,1,48.7,61.9a21.9,21.9,0,0,0,6.9-12.8H62v23H55.2v4H72.7v-4H66V49h6.2a23.23,23.23,0,0,0,7.2,12.9,23.1,23.1,0,0,1,.9,33.4Z" transform="translate(-19.1 -2)"/><rect y="76.9" width="10" height="4"/><rect x="30.76" y="107.21" width="10" height="4" transform="translate(-85.85 55.28) rotate(-45)"/><rect x="42.9" y="113.9" width="4" height="10"/><rect x="90.18" y="104.17" width="4" height="10" transform="translate(-69.3 95.15) rotate(-45)"/><rect x="79.8" y="76.9" width="10" height="4"/><rect x="87.2" y="50.67" width="10" height="4" transform="translate(-29.34 78.63) rotate(-45)"/><rect x="33.79" y="47.72" width="4" height="10" transform="translate(-45.9 38.75) rotate(-45)"/></svg>