<svg id="Camada_1" data-name="Camada 1" xmlns="http://www.w3.org/2000/svg" viewBox="0 0 484.99 456.79"><g id="Layer_2" data-name="Layer 2"><path d="M215.93,268.31a7,7,0,0,1-5-2.05L187.82,243.1a7,7,0,0,1,0-9.9l5-5-2.54-11.71A7,7,0,0,1,192.2,210l10.86-10.86a7,7,0,0,1,9.9,0l41.94,41.94a7,7,0,0,1,0,9.9L244,261.87a7,7,0,0,1-6.43,1.89l-11.71-2.54-5,5A6.93,6.93,0,0,1,215.93,268.31Zm-13.26-30.16,13.26,13.26,2.78-2.78a7,7,0,0,1,6.43-1.89l11.71,2.54,3.21-3.21-32-32-3.21,3.21L207.35,229a7,7,0,0,1-1.89,6.43Z" transform="translate(-13.5 -41.71)"/><path d="M130.33,325.69a6.62,6.62,0,0,1-.77,0,7,7,0,0,1-5.14-3.21,48.25,48.25,0,0,1,6.63-59.56l21.75-21.21.1-.1,17.26-16.16,5.16-4.94a7,7,0,0,1,9.79.1l49.33,49.33a7,7,0,0,1-.11,10l-44.16,42.3a7,7,0,0,1-9.79-.1L158.6,300.32l-23.31,23.31A7,7,0,0,1,130.33,325.69Zm28.26-42.26a7,7,0,0,1,4.95,2.05l21.89,21.89,34-32.62-39.43-39.43-.24.23-.06,0-17.23,16.14-21.63,21.1a34.2,34.2,0,0,0-8.42,33.82l21.18-21.18A7,7,0,0,1,158.59,283.43ZM175,230.5Z" transform="translate(-13.5 -41.71)"/><path d="M324.11,460.12a32.7,32.7,0,0,1-26.58-13.69l-81.4-110.67a7,7,0,1,1,11.28-8.3l81.44,110.71a.86.86,0,0,1,.07.1,18.61,18.61,0,1,0,28.33-23.93L231,308.13,216.5,322.66a7,7,0,1,1-9.9-9.9l19.48-19.48a7,7,0,0,1,9.9,0L347.14,404.44a32.62,32.62,0,0,1-23,55.68Z" transform="translate(-13.5 -41.71)"/><path d="M197,460.12a30.71,30.71,0,0,1-21.73-52.42l46-46a7,7,0,0,1,9.9,9.9l-46,46a16.74,16.74,0,0,0,0,23.63A16.7,16.7,0,0,0,210,439.88l43.16-53.79L232.85,358.5a7,7,0,1,1,11.28-8.3l23.48,31.92a7,7,0,0,1-.18,8.53l-46.52,58a30.74,30.74,0,0,1-22.27,11.45Z" transform="translate(-13.5 -41.71)"/><path d="M287.38,361.58a7,7,0,0,1-4.95-2.05L257.87,335a7,7,0,0,1,0-9.9l30.48-30.49-7.72-28.81a7,7,0,0,1,1.81-6.76l36.83-36.83a7,7,0,0,1,6.76-1.81l26.29,7a7,7,0,0,1,3.14,11.71L328.62,266,333,282.18l16.21,4.34L376,259.68a7,7,0,0,1,11.71,3.14l7,26.29a7,7,0,0,1-1.81,6.76L356.13,332.7a7,7,0,0,1-6.76,1.81L319,326.37l-15.6,19.45a7,7,0,0,1-10.92-8.76l18.46-23a7,7,0,0,1,7.27-2.38L349.09,320l31.11-31.11-2.86-10.68-21.12,21.12a7,7,0,0,1-6.76,1.81l-24-6.43a7,7,0,0,1-4.95-5l-6.43-24a7,7,0,0,1,1.81-6.76L337,237.81,326.31,235,295.2,266.06l7.72,28.81a7,7,0,0,1-1.81,6.76L272.72,330l19.61,19.61a7,7,0,0,1-4.95,11.94Z" transform="translate(-13.5 -41.71)"/><path d="M491.5,249.42H415.07a7,7,0,0,1-5-2.07L256,92.2,101.9,247.35a7,7,0,0,1-5,2.07H20.5a7,7,0,0,1-5-11.93L207.9,43.78a7,7,0,0,1,5-2.07h86.26a7,7,0,0,1,5,2.07l26.47,26.66a7,7,0,1,1-9.93,9.87L296.22,55.72H215.78L37.32,235.42H94L251,77.33a7,7,0,0,1,9.94,0L418,235.42h56.7l-115-115.79a7,7,0,1,1,9.93-9.87L496.46,237.48a7,7,0,0,1-5,11.94Z" transform="translate(-13.5 -41.71)"/><path d="M347.43,104.47a7,7,0,0,1-5-11.93l.14-.14a7,7,0,1,1,9.94,9.86l-.14.14A7,7,0,0,1,347.43,104.47Z" transform="translate(-13.5 -41.71)"/><path d="M94.68,376.17a7.08,7.08,0,0,1-5-2.05,7.44,7.44,0,0,1-.87-1.06,7.21,7.21,0,0,1-1-2.52,7.08,7.08,0,0,1-.14-1.37,7,7,0,0,1,.14-1.37,6.82,6.82,0,0,1,.4-1.31,7,7,0,0,1,.64-1.21,7.44,7.44,0,0,1,.87-1.06,7.53,7.53,0,0,1,1.07-.87,7.21,7.21,0,0,1,2.52-1,6.78,6.78,0,0,1,2.73,0,6.61,6.61,0,0,1,1.31.4,7,7,0,0,1,1.21.64,7.44,7.44,0,0,1,1.06.87,6.29,6.29,0,0,1,.87,1.06,7.05,7.05,0,0,1,.65,1.21,7.61,7.61,0,0,1,.4,1.31,7,7,0,0,1,.13,1.37,7.06,7.06,0,0,1-.13,1.37,7.89,7.89,0,0,1-.4,1.31,7.05,7.05,0,0,1-.65,1.21,6.29,6.29,0,0,1-.87,1.06,7.44,7.44,0,0,1-1.06.87,7,7,0,0,1-1.21.64,6.61,6.61,0,0,1-1.31.4A7,7,0,0,1,94.68,376.17Z" transform="translate(-13.5 -41.71)"/><path d="M417.32,498.5H94.68a7,7,0,0,1-7-7V400a7,7,0,0,1,14,0V484.5H410.31V302.62a7,7,0,0,1,14,0V491.5A7,7,0,0,1,417.32,498.5Z" transform="translate(-13.5 -41.71)"/><path d="M94.68,345.36a7,7,0,0,1-7-7V242.42a7,7,0,0,1,6.3-7L251,77.33a7,7,0,0,1,9.94,0L418,235.45a7,7,0,0,1-.7,14h-2.25a7,7,0,0,1-5-2.07L256,92.2,101.9,247.35l-.22.21v90.8A7,7,0,0,1,94.68,345.36Z" transform="translate(-13.5 -41.71)"/></g></svg>