<?xml version="1.0" encoding="iso-8859-1"?>
<!-- Generator: Adobe Illustrator 16.0.0, SVG Export Plug-In . SVG Version: 6.00 Build 0)  -->
<!DOCTYPE svg PUBLIC "-//W3C//DTD SVG 1.1//EN" "http://www.w3.org/Graphics/SVG/1.1/DTD/svg11.dtd">
<svg version="1.1" id="Capa_1" xmlns="http://www.w3.org/2000/svg" xmlns:xlink="http://www.w3.org/1999/xlink" x="0px" y="0px"
	 width="82.188px" height="82.188px" viewBox="0 0 82.188 82.188" style="enable-background:new 0 0 82.188 82.188;"
	 xml:space="preserve">
<g>
	<path style="fill:#010002;" d="M32.084,2.12c8.184,0,14.84,6.662,14.84,14.844v8.492c0,8.182-6.656,14.843-14.84,14.843h-8.492
		c-8.184,0-14.843-6.662-14.843-14.843v-8.492c0-8.182,6.659-14.844,14.843-14.844H32.084 M41.079,2.651
		C38.458,0.997,35.388,0,32.084,0h-8.492C14.263,0,6.628,7.635,6.628,16.964v8.492c0,8.963,7.078,16.295,15.907,16.857v39.875
		h21.209V66.28H54.35v15.907h21.209V2.651H41.079z M27.838,53.024V42.419h4.246c2.25,0,4.391-0.466,6.359-1.269v11.874H27.838z
		 M54.35,53.024H43.745v-15.33c0.197-0.184,0.389-0.381,0.58-0.578H54.35V53.024z M54.35,26.512h-5.416
		c0.03-0.354,0.113-0.693,0.113-1.056v-8.492c0-2.25-0.466-4.392-1.264-6.359h6.566V26.512z M70.257,53.024H59.652V37.117h10.605
		V53.024z M70.257,26.512H59.652V10.604h10.605V26.512z M24.477,33.008L13.236,21.771l3.749-3.749l7.493,7.487l14.214-14.222
		l3.749,3.749L24.477,33.008z"/>
</g>
<g>
</g>
<g>
</g>
<g>
</g>
<g>
</g>
<g>
</g>
<g>
</g>
<g>
</g>
<g>
</g>
<g>
</g>
<g>
</g>
<g>
</g>
<g>
</g>
<g>
</g>
<g>
</g>
<g>
</g>
</svg>
