<svg id="Слой_1" data-name="Слой 1" xmlns="http://www.w3.org/2000/svg" viewBox="0 0 122 107.9"><path d="M28.5,97a9.5,9.5,0,1,0,9.5,9.5A9.56,9.56,0,0,0,28.5,97Zm0,15a5.5,5.5,0,1,1,5.5-5.5A5.48,5.48,0,0,1,28.5,112Z" transform="translate(-2 -18.1)"/><path d="M75.5,97a9.5,9.5,0,1,0,9.5,9.5A9.56,9.56,0,0,0,75.5,97Zm0,15a5.5,5.5,0,1,1,5.5-5.5A5.48,5.48,0,0,1,75.5,112Z" transform="translate(-2 -18.1)"/><path d="M6,112.2H9.9a19.57,19.57,0,0,0,37.4,0H57a19.53,19.53,0,0,0,38.2-5.7A19.12,19.12,0,0,0,91.4,95L89,83.2l11.5,14.5-1,1.4a17.1,17.1,0,0,0-1.3,17.7,16.84,16.84,0,0,0,15.1,9.2H124v-4h-3.2l-4-42H113l-7.1,10-14-21.1A12.35,12.35,0,0,0,85.4,64l-.3-.1L79.5,35.8A22,22,0,0,0,57.9,18.1H20.5v26L19,43.7A9.48,9.48,0,0,0,2,49.5v58.7A4,4,0,0,0,6,112.2ZM28.5,122A15.5,15.5,0,1,1,44,106.5,15.58,15.58,0,0,1,28.5,122ZM48,108.2c0-.5.1-1.1.1-1.7A19.61,19.61,0,0,0,29.6,87L24,61.8l11.6,2.6v2.4a12.08,12.08,0,0,0,9.6,11.8l40.3,8.2.7,3.4A19.5,19.5,0,0,0,56,106.5a9.7,9.7,0,0,0,.1,1.7ZM75.5,122A15.5,15.5,0,1,1,91,106.5,15.58,15.58,0,0,1,75.5,122Zm9.1-39.5L46,74.7a8,8,0,0,1-6.4-7.8V65.4l41.6,9.2a2.45,2.45,0,0,1,1.7,1.1l.5.7Zm28.8,3.8,3.4,35.7h-3.7a13,13,0,0,1-10.6-20.6ZM88.6,71.1l14.8,22.4-.6.9L86,73.1a7.06,7.06,0,0,0-4-2.5L23,57.5l-2-9L84.2,67.8A8.12,8.12,0,0,1,88.6,71.1Zm-13-34.5,5.1,25.9L39.5,50V22.1H58A18,18,0,0,1,75.6,36.6ZM24.5,22.1h11V48.7l-11-3.4ZM6,49.5a5.52,5.52,0,0,1,10.9-1.2l8.6,38.9A19.74,19.74,0,0,0,9,106.5a9.7,9.7,0,0,0,.1,1.7H6Z" transform="translate(-2 -18.1)"/></svg>